 <svg  version="1.0" xmlns="http://www.w3.org/2000/svg"  width="900.000000pt" height="672.000000pt" viewBox="0 0 900.000000 672.000000"  preserveAspectRatio="xMidYMid meet">  <g transform="translate(0.000000,672.000000) scale(0.100000,-0.100000)" fill="#45aa96" stroke="none"> <path d="M4370 5460 c-73 -10 -145 -23 -157 -29 -13 -6 -39 -11 -57 -11 -17 0 -41 -7 -52 -15 -10 -8 -27 -15 -36 -15 -17 0 -67 -19 -121 -46 -16 -8 -37 -14 -47 -14 -10 0 -21 -4 -25 -9 -3 -6 -29 -21 -58 -36 -28 -14 -59 -29 -67 -34 -8 -5 -22 -12 -30 -15 -25 -10 -129 -80 -179 -121 -91 -75 -185 -162 -217 -202 -21 -27 -46 -56 -56 -66 -10 -10 -40 -50 -66 -88 -71 -106 -81 -123 -88 -139 -3 -8 -10 -22 -15 -30 -5 -8 -12 -22 -15 -30 -3 -8 -12 -30 -20 -47 -14 -32 -25 -59 -58 -136 -9 -21 -16 -47 -16 -58 0 -12 -6 -42 -14 -68 -29 -92 -39 -169 -43 -347 -4 -145 -2 -193 11 -243 9 -34 16 -74 16 -87 0 -14 5 -34 11 -45 6 -11 14 -41 19 -67 9 -52 25 -102 46 -145 8 -16 14 -37 14 -47 0 -9 7 -23 15 -30 8 -7 15 -21 15 -31 0 -10 5 -21 11 -24 5 -4 15 -17 20 -28 5 -12 18 -35 29 -52 11 -16 25 -42 31 -57 6 -16 15 -28 20 -28 5 0 9 -5 9 -11 0 -26 148 -200 280 -327 65 -63 184 -153 230 -175 8 -4 29 -16 45 -27 17 -11 37 -22 45 -26 8 -3 22 -10 30 -15 8 -5 22 -12 30 -15 8 -3 27 -12 42 -20 14 -8 35 -14 45 -14 10 0 24 -5 30 -11 6 -6 29 -15 50 -19 21 -5 52 -13 68 -18 92 -31 133 -42 160 -42 17 0 66 -7 110 -15 105 -19 301 -19 390 0 38 8 84 15 101 15 29 0 98 17 169 42 17 5 47 13 68 18 21 4 44 13 50 19 6 6 19 11 29 11 18 0 180 81 208 104 8 7 22 16 30 20 19 9 41 22 110 67 57 37 301 275 323 314 13 25 99 156 144 220 26 37 45 79 60 130 3 11 11 26 17 34 12 16 36 76 43 111 3 14 11 39 19 57 8 17 14 42 14 55 0 13 7 48 16 78 22 75 22 519 -1 600 -8 30 -15 69 -15 85 0 17 -7 41 -15 55 -8 14 -14 37 -15 51 0 14 -7 34 -15 45 -8 10 -15 29 -15 40 0 12 -7 27 -15 34 -8 7 -15 18 -15 25 0 6 -11 32 -25 56 -13 24 -29 53 -35 64 -6 11 -19 34 -30 50 -11 17 -23 37 -27 45 -41 90 -384 450 -428 450 -4 0 -24 12 -44 28 -65 49 -212 123 -326 165 -97 35 -112 40 -150 46 -23 4 -46 10 -52 14 -17 10 -226 36 -333 41 -62 3 -142 -2 -230 -14z m430 -206 c94 -19 175 -42 218 -60 18 -8 39 -14 47 -14 7 0 26 -7 42 -15 15 -7 48 -23 73 -35 51 -24 56 -27 160 -93 111 -72 211 -160 313 -276 48 -55 121 -151 130 -171 4 -8 16 -28 27 -45 18 -28 22 -35 35 -67 3 -7 9 -20 13 -28 26 -47 42 -84 42 -98 0 -9 7 -30 15 -46 8 -15 15 -39 15 -52 0 -13 6 -41 14 -61 8 -21 17 -60 20 -88 3 -27 10 -88 16 -135 10 -70 9 -108 -5 -215 -9 -71 -23 -153 -31 -181 -8 -28 -14 -62 -14 -75 0 -14 -7 -34 -15 -45 -8 -10 -15 -29 -15 -41 0 -12 -7 -34 -15 -50 -7 -15 -24 -48 -35 -73 -131 -275 -360 -520 -605 -645 -27 -14 -57 -29 -65 -33 -52 -29 -84 -42 -99 -42 -9 0 -26 -7 -37 -15 -10 -8 -30 -15 -44 -15 -14 0 -36 -7 -50 -15 -14 -8 -38 -14 -53 -15 -16 0 -49 -7 -75 -15 -38 -13 -89 -15 -257 -13 -196 3 -282 13 -360 40 -16 6 -43 13 -60 16 -16 2 -39 11 -50 18 -11 8 -27 14 -36 14 -10 0 -30 7 -46 15 -15 8 -62 30 -103 50 -94 45 -96 47 -197 120 -127 94 -273 242 -345 350 -47 71 -125 220 -150 290 -67 180 -71 206 -75 460 -5 236 4 321 43 412 8 17 14 37 14 44 0 19 31 97 57 144 12 22 33 63 47 90 13 28 34 59 46 70 12 11 32 43 46 71 15 32 57 84 111 139 81 81 193 175 208 175 4 0 24 13 44 28 20 16 43 32 51 35 8 4 29 16 45 27 17 11 37 23 45 26 8 3 20 8 25 10 6 2 17 8 25 12 60 35 216 87 305 102 28 4 61 13 75 18 42 18 383 15 470 -4z"/> <path d="M4434 4879 c-57 -40 -88 -84 -107 -154 -15 -56 -15 -63 1 -115 24 -75 45 -103 107 -145 47 -31 61 -35 117 -35 97 0 173 45 217 130 17 32 21 59 21 128 l0 87 -46 53 c-25 28 -51 52 -59 52 -7 0 -18 7 -25 15 -9 11 -33 15 -99 14 -78 -1 -90 -3 -127 -30z m185 -95 c20 -12 31 -30 40 -66 26 -100 -15 -168 -101 -168 -65 0 -76 6 -101 59 -41 85 -10 166 69 181 59 12 64 11 93 -6z"/> <path d="M5082 4737 c-28 -30 -27 -65 2 -100 18 -23 30 -28 57 -25 28 2 35 9 47 39 12 31 11 41 -2 72 -13 32 -19 37 -49 37 -22 0 -41 -8 -55 -23z"/> <path d="M3967 4722 c-34 -37 -10 -112 34 -112 19 0 69 51 69 71 0 51 -70 78 -103 41z"/> <path d="M3490 4380 c-14 -19 -20 -44 -20 -80 0 -29 -7 -79 -16 -113 -27 -104 -11 -377 28 -492 5 -16 12 -41 15 -55 5 -28 16 -54 65 -153 18 -38 39 -73 45 -79 7 -6 13 -15 13 -20 0 -39 238 -279 310 -311 8 -4 35 -18 59 -32 24 -14 50 -25 56 -25 7 0 18 -7 25 -15 7 -8 23 -15 35 -15 13 0 36 -7 51 -15 16 -8 38 -15 49 -15 11 0 40 -6 65 -14 129 -41 150 -45 150 -29 0 14 -34 108 -64 178 -7 17 -19 46 -28 65 -27 65 -50 115 -59 130 -4 8 -20 38 -34 65 -73 143 -204 299 -336 401 -33 25 -72 57 -87 71 -25 23 -25 26 -12 50 8 14 27 35 43 47 33 24 38 22 143 -64 148 -121 252 -239 368 -419 59 -90 136 -238 136 -261 0 -9 7 -25 15 -36 8 -10 15 -32 15 -49 0 -31 29 -115 39 -115 27 1 45 44 65 156 18 102 21 336 5 399 -5 22 -14 63 -18 90 -11 61 -44 155 -73 205 -4 8 -11 22 -15 30 -13 30 -105 140 -154 184 -58 53 -205 153 -249 171 -8 4 -22 11 -30 16 -8 5 -22 12 -30 15 -8 3 -28 12 -43 20 -16 7 -36 14 -46 14 -9 0 -22 5 -28 11 -6 6 -26 14 -44 19 -19 4 -47 13 -64 18 -93 32 -133 42 -156 42 -15 0 -42 6 -60 14 -19 7 -51 16 -71 19 -33 5 -40 2 -58 -23z m220 -124 c74 -14 91 -19 265 -90 229 -93 416 -259 489 -434 44 -103 71 -282 46 -297 -14 -9 -40 13 -40 32 0 9 -12 29 -26 47 -14 17 -60 74 -103 128 -100 123 -320 325 -389 357 -46 22 -56 23 -92 12 -81 -24 -148 -110 -137 -178 6 -38 64 -115 123 -165 22 -18 52 -44 68 -58 54 -46 87 -84 155 -185 79 -116 131 -216 131 -250 0 -13 5 -27 10 -30 16 -10 12 -42 -6 -49 -30 -12 -60 -6 -119 24 -33 16 -64 30 -68 30 -20 0 -168 124 -222 186 -61 68 -135 172 -135 188 0 7 -18 52 -66 163 -8 17 -14 39 -14 48 0 9 -4 24 -9 34 -33 60 -30 405 3 470 19 35 25 36 136 17z"/> <path d="M5550 4400 c-30 -4 -71 -12 -90 -19 -19 -6 -49 -11 -65 -11 -17 0 -39 -6 -50 -14 -11 -7 -33 -16 -50 -18 -36 -7 -89 -25 -128 -44 -16 -8 -37 -14 -47 -14 -9 0 -23 -7 -30 -15 -7 -8 -20 -15 -30 -15 -10 0 -23 -7 -30 -15 -7 -8 -20 -15 -30 -15 -10 0 -23 -7 -30 -15 -7 -8 -17 -15 -22 -15 -34 0 -298 -234 -298 -264 0 -7 10 -29 23 -48 27 -41 51 -91 67 -138 16 -47 39 -194 40 -252 0 -70 27 -65 63 11 15 32 55 96 89 141 72 97 288 320 310 320 22 0 88 -75 88 -100 0 -13 -16 -35 -37 -53 -106 -88 -299 -300 -327 -357 -10 -22 -26 -47 -74 -118 -23 -35 -42 -67 -42 -72 0 -5 -6 -21 -14 -37 -34 -71 -65 -153 -75 -203 -4 -19 -14 -45 -22 -57 -21 -35 -2 -46 62 -34 51 8 68 13 164 48 43 16 161 69 185 84 8 5 22 12 30 16 78 34 300 259 300 304 0 6 17 35 38 66 63 93 81 127 82 154 0 14 4 29 9 35 13 13 42 127 54 214 16 113 11 410 -9 507 -4 22 -30 54 -42 52 -4 -1 -32 -5 -62 -9z m2 -167 c16 -38 21 -69 21 -148 1 -111 -27 -324 -49 -369 -8 -16 -14 -35 -14 -43 0 -16 -56 -138 -80 -173 -10 -14 -37 -56 -60 -94 -24 -37 -63 -87 -86 -111 -58 -57 -210 -165 -234 -165 -10 0 -21 -4 -24 -9 -9 -14 -87 -24 -98 -13 -12 12 16 103 45 147 12 17 29 42 39 57 10 15 18 32 18 39 0 6 9 23 20 37 12 15 46 61 77 102 30 41 97 116 148 165 51 50 105 111 119 137 27 46 27 47 10 97 -17 53 -81 123 -129 141 -64 24 -144 -24 -286 -172 -76 -79 -100 -99 -119 -96 -12 1 -26 10 -30 18 -4 8 -18 34 -30 58 -25 49 -21 103 8 127 9 8 44 36 77 63 33 27 76 57 95 68 19 10 42 24 50 29 8 6 38 21 65 32 28 12 77 34 110 48 84 38 213 72 278 74 36 1 39 -1 59 -46z"/> <path d="M5947 5338 c-193 -104 -125 -368 95 -368 166 0 258 196 149 318 -20 23 -41 42 -48 42 -6 0 -16 7 -23 15 -19 23 -125 19 -173 -7z m158 -58 c36 -22 45 -50 45 -132 0 -45 -4 -54 -37 -84 -53 -49 -96 -47 -148 6 -33 34 -39 47 -43 93 -4 51 -2 57 33 96 32 35 43 41 77 41 23 0 55 -9 73 -20z"/> <path d="M5996 5244 c-11 -28 -6 -140 6 -152 17 -17 63 -15 78 3 10 12 7 19 -14 38 -32 30 -32 35 -1 47 46 18 21 80 -33 80 -18 0 -32 -6 -36 -16z"/> <path d="M6680 3915 c-58 -59 -45 -111 39 -159 l33 -18 36 29 c30 24 37 38 39 69 3 41 -11 65 -57 97 -35 25 -52 21 -90 -18z"/> <path d="M2318 3896 c-30 -41 -23 -80 19 -115 43 -35 54 -37 87 -16 38 25 49 63 33 110 -14 39 -15 40 -68 42 -47 3 -56 0 -71 -21z"/> <path d="M5272 1956 c-5 -6 -5 -132 -1 -286 5 -151 10 -335 12 -408 2 -79 8 -137 15 -144 6 -6 43 -12 81 -14 l71 -4 0 53 c0 28 -7 88 -15 132 -10 57 -14 162 -15 368 l0 287 -22 9 c-41 15 -117 19 -126 7z"/> <path d="M1372 1935 c-4 -5 -5 -194 -2 -420 l5 -410 35 1 c19 1 105 5 191 11 86 5 187 6 225 3 38 -4 74 -5 80 -3 15 5 24 124 11 141 -12 15 -302 17 -341 2 -50 -18 -56 -7 -56 101 l0 99 113 -6 c61 -3 134 -10 160 -16 28 -6 52 -7 57 -2 11 12 17 126 6 142 -6 10 -46 12 -169 10 l-162 -3 -3 104 -3 104 195 -6 194 -6 4 72 c2 40 1 75 -2 79 -8 11 -531 14 -538 3z"/> <path d="M3318 1935 c-2 -5 -2 -194 0 -419 l2 -408 68 8 c114 15 405 11 436 -5 35 -19 43 -9 49 71 7 101 9 101 -215 97 l-183 -4 -1 92 c-2 109 -19 101 186 92 101 -4 149 -3 157 5 17 16 5 115 -16 124 -9 5 -83 5 -166 1 -82 -4 -153 -5 -157 -2 -5 2 -8 49 -8 103 0 54 3 101 8 103 4 2 90 1 192 -3 125 -4 189 -3 197 4 13 12 22 130 11 141 -11 12 -557 11 -560 0z"/> <path d="M2195 1705 c-22 -14 -47 -28 -55 -32 -8 -3 -40 -32 -71 -63 -45 -45 -60 -69 -73 -114 -41 -138 44 -315 179 -375 58 -26 180 -29 211 -6 10 8 26 15 34 15 8 0 26 10 40 23 14 12 37 30 53 40 27 18 38 57 15 57 -7 0 -30 15 -52 34 -34 31 -66 38 -66 16 0 -5 -15 -18 -34 -29 -68 -42 -163 -17 -205 55 -30 50 -29 132 3 182 34 54 66 72 129 72 48 0 58 -4 90 -35 22 -22 42 -33 51 -29 9 3 16 10 16 14 0 4 16 24 35 44 36 38 37 61 4 71 -10 4 -19 10 -19 15 0 4 -8 10 -17 14 -10 3 -38 17 -62 31 -61 35 -149 34 -206 0z"/> <path d="M2790 1712 c-87 -42 -170 -116 -200 -177 -41 -84 -21 -225 43 -303 43 -52 94 -102 104 -102 6 0 24 -7 39 -15 19 -9 57 -15 107 -15 67 0 87 4 140 31 71 35 97 59 132 125 14 26 30 54 37 62 20 23 15 187 -5 210 -10 10 -17 23 -17 29 0 12 -86 102 -115 120 -89 55 -194 69 -265 35z m168 -156 c48 -30 57 -42 73 -94 18 -63 -2 -134 -50 -179 -30 -28 -44 -33 -84 -33 -89 0 -153 63 -174 171 -6 34 19 83 65 125 31 29 45 34 85 34 33 0 59 -7 85 -24z"/> <path d="M3920 1707 c0 -13 14 -36 31 -53 47 -44 179 -221 179 -239 0 -19 -71 -116 -147 -198 -39 -43 -53 -66 -53 -88 0 -27 2 -29 40 -29 46 0 106 22 130 48 9 9 36 50 59 90 24 39 47 72 51 72 12 0 37 -32 60 -77 12 -24 26 -43 31 -43 5 0 9 -6 9 -13 0 -7 14 -28 31 -46 29 -32 33 -33 77 -26 26 3 58 7 72 8 29 2 39 32 17 50 -16 14 -93 117 -121 162 -10 17 -32 40 -47 53 -26 21 -40 62 -21 62 4 0 18 22 31 49 12 27 56 84 97 126 40 43 71 81 69 86 -8 12 -106 31 -140 27 -30 -3 -34 -8 -95 -123 -38 -71 -39 -71 -69 -66 -5 0 -21 25 -35 54 -13 28 -41 71 -61 95 l-37 42 -79 0 c-76 0 -79 -1 -79 -23z"/> <path d="M4585 1314 l1 -419 79 -3 c43 -2 82 1 87 6 5 5 4 50 -3 108 -6 54 -13 118 -16 142 -3 23 -2 42 1 42 3 0 24 -13 46 -29 96 -69 208 -63 298 15 28 24 63 65 78 92 24 43 27 56 27 147 0 121 -19 169 -90 233 -53 48 -104 72 -171 79 -61 7 -85 -2 -132 -47 -49 -47 -60 -49 -60 -12 0 46 -14 56 -82 60 l-63 4 0 -418z m381 244 c62 -55 83 -159 44 -223 -30 -49 -83 -85 -123 -85 -75 0 -157 95 -157 182 1 53 40 115 90 141 44 23 109 16 146 -15z"/> <path d="M5725 1705 c-22 -13 -51 -30 -65 -37 -25 -13 -65 -65 -100 -131 -16 -29 -20 -56 -20 -123 0 -76 3 -91 31 -142 36 -68 95 -125 157 -152 56 -25 188 -28 218 -5 10 8 25 15 33 15 34 0 143 123 170 190 56 139 -20 303 -176 379 -52 26 -73 31 -135 31 -59 -1 -81 -6 -113 -25z m221 -163 c57 -52 70 -89 55 -155 -20 -86 -79 -137 -158 -137 -54 1 -73 13 -121 79 -55 75 -39 174 36 230 20 15 43 20 87 21 56 0 63 -3 101 -38z"/> <path d="M6265 1423 l0 -308 80 3 c44 2 83 7 87 10 4 4 2 53 -4 110 -14 137 -1 232 39 275 49 51 81 67 116 55 27 -10 33 -8 49 12 10 12 18 33 18 47 0 13 5 33 10 44 8 13 7 25 0 39 -9 17 -21 20 -71 20 -60 0 -60 0 -113 -56 -59 -62 -70 -61 -71 11 l0 40 -70 3 -71 3 1 -308z"/> <path d="M6850 1699 c-105 -76 -170 -187 -170 -287 1 -34 6 -65 15 -76 8 -11 15 -26 15 -33 0 -8 10 -28 23 -45 94 -133 231 -190 344 -143 19 8 43 15 52 15 9 0 27 10 41 23 14 12 42 33 62 47 37 25 50 50 25 50 -7 0 -29 11 -49 25 -20 14 -42 25 -48 25 -6 0 -26 -11 -44 -25 -28 -21 -44 -25 -100 -25 -70 0 -99 12 -143 59 -25 26 -31 61 -10 62 6 0 106 0 220 -1 l209 -1 -7 68 c-4 37 -13 81 -21 97 -8 16 -14 35 -14 42 0 19 -108 112 -156 134 -31 15 -65 20 -122 20 -73 0 -82 -3 -122 -31z m172 -110 c29 -6 59 -16 65 -21 18 -14 43 -68 43 -91 0 -18 -4 -19 -47 -12 -61 11 -127 11 -179 1 -38 -7 -42 -6 -47 15 -8 29 25 84 61 104 33 18 38 18 104 4z"/> <path d="M7377 1434 c1 -163 6 -301 11 -306 4 -4 43 -5 86 -2 l77 7 -3 182 -3 182 25 25 c37 37 63 48 114 48 42 0 45 2 56 34 6 19 12 54 13 78 l2 43 -60 3 c-64 3 -76 -4 -126 -70 -33 -45 -51 -37 -47 20 l3 47 -75 3 -75 3 2 -297z"/> </g> </svg> 