 <svg  version="1.0" xmlns="http://www.w3.org/2000/svg"  width="300.000000pt" height="192.000000pt" viewBox="0 0 300.000000 192.000000"  preserveAspectRatio="xMidYMid meet">  <g transform="translate(0.000000,192.000000) scale(0.100000,-0.100000)" fill="#ffffff" stroke="none"> <path d="M1363 1820 c-135 -19 -309 -86 -420 -161 -129 -88 -256 -242 -319 -388 -93 -216 -86 -492 17 -708 110 -231 307 -407 539 -483 468 -152 960 77 1145 532 47 116 58 195 53 367 -4 128 -9 156 -35 231 -99 287 -341 513 -629 586 -105 26 -259 37 -351 24z m299 -129 c202 -52 381 -182 496 -360 184 -285 137 -691 -110 -942 -166 -170 -360 -246 -601 -236 -137 5 -208 22 -316 73 -210 98 -365 276 -433 494 -30 99 -33 309 -4 410 79 275 292 482 578 559 101 27 286 28 390 2z"/> <path d="M1384 1477 c-70 -64 -54 -181 30 -221 42 -20 67 -20 110 -2 97 41 112 182 24 236 -21 13 -51 20 -81 20 -40 0 -53 -5 -83 -33z"/> <path d="M1763 1404 c-8 -22 9 -48 34 -52 23 -3 37 21 28 49 -8 24 -53 25 -62 3z"/> <path d="M870 1206 c-20 -53 -31 -221 -19 -297 28 -188 143 -359 297 -442 57 -31 235 -80 240 -67 6 15 -69 191 -112 265 -26 44 -76 105 -136 163 -79 78 -92 96 -84 110 20 31 44 24 111 -30 114 -92 220 -242 273 -388 15 -41 32 -76 38 -78 20 -6 36 83 36 203 1 99 -3 131 -22 187 -50 145 -169 256 -353 328 -46 19 -231 70 -252 70 -4 0 -12 -11 -17 -24z"/> <path d="M1980 1216 c-169 -38 -304 -103 -395 -191 l-64 -61 30 -60 c16 -33 34 -93 41 -136 7 -43 15 -78 19 -78 3 0 11 11 17 25 30 66 198 255 226 255 15 0 46 -32 46 -47 0 -6 -39 -51 -87 -100 -103 -104 -176 -219 -214 -337 l-27 -81 22 -3 c29 -4 154 39 213 74 58 33 170 139 179 168 4 11 19 39 35 61 15 22 38 74 51 115 20 64 23 96 23 220 -1 197 -3 201 -115 176z"/> <path d="M2243 1740 c-64 -39 -72 -103 -19 -156 28 -28 41 -34 78 -34 53 0 85 21 105 67 40 96 -71 180 -164 123z m110 -29 c5 -5 11 -26 14 -48 4 -33 1 -44 -18 -62 -31 -28 -63 -27 -88 5 -44 56 -11 132 52 120 17 -4 35 -10 40 -15z"/> <path d="M2273 1694 c-3 -9 -2 -33 3 -53 7 -26 14 -36 29 -36 11 0 21 8 23 18 2 10 -3 17 -12 17 -9 0 -16 5 -16 10 0 6 6 10 14 10 19 0 28 14 20 34 -8 21 -53 21 -61 0z"/> <path d="M2666 951 c-24 -26 -17 -62 16 -80 24 -14 28 -14 47 3 26 24 27 50 1 76 -25 25 -42 25 -64 1z"/> <path d="M214 934 c-18 -26 -18 -27 9 -50 32 -27 55 -22 64 14 13 55 -43 83 -73 36z"/> </g> </svg> 