 <svg  version="1.0" xmlns="http://www.w3.org/2000/svg"  width="900.000000pt" height="669.000000pt" viewBox="0 0 900.000000 669.000000"  preserveAspectRatio="xMidYMid meet">  <g transform="translate(0.000000,669.000000) scale(0.100000,-0.100000)" fill="#05cea8" stroke="none"> <path d="M4230 6000 c-30 -4 -81 -8 -114 -9 -32 -1 -84 -7 -115 -15 -31 -7 -101 -21 -156 -31 -55 -9 -111 -21 -125 -27 -14 -5 -45 -14 -70 -18 -44 -8 -162 -48 -270 -90 -30 -12 -67 -25 -81 -30 -14 -4 -34 -12 -45 -17 -293 -144 -474 -246 -584 -328 -30 -22 -68 -49 -85 -60 -85 -53 -364 -320 -475 -454 -25 -29 -50 -59 -55 -65 -20 -21 -191 -271 -227 -331 -50 -85 -218 -442 -218 -465 0 -5 -6 -24 -14 -42 -31 -72 -82 -282 -116 -473 -17 -95 -32 -467 -26 -615 8 -154 25 -273 67 -445 72 -296 105 -396 192 -575 117 -242 321 -551 473 -715 267 -289 436 -440 616 -550 9 -5 48 -29 85 -51 192 -117 306 -171 473 -226 300 -97 324 -104 410 -122 385 -78 749 -88 1120 -30 213 33 282 50 511 125 162 54 199 69 320 129 94 47 90 44 216 123 51 31 94 57 97 57 6 0 190 121 196 130 3 3 26 20 51 38 25 17 134 122 242 234 205 213 184 186 457 598 70 105 99 159 136 248 23 53 40 93 72 162 64 141 115 334 159 594 24 146 29 580 9 778 -18 176 -41 326 -61 398 -7 25 -20 74 -30 110 -27 102 -75 224 -148 380 -53 113 -274 474 -318 520 -8 8 -39 47 -70 85 -61 76 -327 346 -428 435 -210 184 -667 428 -956 510 -16 4 -43 13 -60 18 -99 34 -385 91 -505 103 -147 13 -484 19 -550 9z m583 -386 c45 -8 109 -21 142 -29 33 -8 76 -17 95 -21 19 -4 80 -22 135 -41 55 -19 114 -38 130 -43 42 -11 216 -83 245 -100 8 -5 44 -23 79 -41 80 -41 322 -202 416 -277 78 -62 286 -267 357 -352 100 -119 157 -194 239 -315 36 -53 165 -303 184 -357 39 -108 68 -200 89 -283 21 -82 33 -138 66 -320 6 -33 14 -148 17 -255 4 -163 2 -221 -16 -353 -12 -87 -25 -177 -30 -200 -5 -23 -17 -78 -26 -122 -45 -209 -169 -511 -297 -723 -177 -293 -464 -595 -750 -788 -57 -39 -110 -73 -118 -77 -8 -4 -33 -18 -55 -30 -103 -60 -208 -117 -215 -117 -4 0 -33 -11 -63 -25 -31 -13 -105 -40 -164 -60 -59 -19 -121 -39 -138 -45 -42 -13 -161 -40 -220 -49 -27 -4 -70 -13 -95 -19 -25 -6 -127 -16 -228 -23 -236 -15 -363 -5 -697 57 -238 45 -556 166 -781 299 -42 25 -77 45 -79 45 -7 0 -140 93 -220 154 -120 90 -352 318 -465 454 -75 92 -131 177 -197 299 -32 59 -63 117 -70 128 -52 90 -82 163 -147 360 -88 265 -111 419 -111 730 0 341 28 545 105 775 21 63 41 128 45 144 7 33 12 44 115 241 71 137 98 180 145 231 13 14 42 62 65 107 24 46 67 108 98 143 32 33 77 83 102 110 85 93 249 232 362 306 242 160 291 189 410 247 189 91 203 96 473 175 28 8 84 22 125 31 41 9 95 21 120 27 124 30 666 32 823 2z"/> <path d="M4296 4975 c-27 -8 -80 -35 -118 -60 -110 -76 -156 -147 -184 -285 -14 -71 -15 -94 -5 -151 28 -154 108 -261 249 -331 134 -66 226 -65 370 6 83 41 145 99 179 167 54 111 65 158 61 267 -3 88 -7 105 -36 164 -58 112 -155 192 -276 224 -64 17 -175 17 -240 -1z"/> <path d="M5420 4682 c-44 -23 -72 -76 -64 -117 10 -50 46 -94 86 -106 52 -16 80 -6 106 40 37 66 24 134 -34 180 -33 26 -49 26 -94 3z"/> <path d="M2507 4050 c-21 -14 -57 -82 -57 -110 0 -12 -7 -60 -16 -108 -8 -48 -22 -123 -30 -168 -10 -54 -15 -159 -16 -315 -2 -316 15 -424 113 -729 82 -255 286 -566 499 -764 254 -234 565 -391 905 -456 22 -5 84 -17 138 -28 78 -15 100 -17 104 -7 2 7 -8 51 -23 97 -14 45 -35 108 -45 138 -30 95 -148 360 -216 490 -92 174 -142 254 -244 390 -68 91 -292 318 -375 380 -32 24 -66 51 -75 60 -9 8 -35 32 -58 53 -86 79 -89 121 -12 187 59 51 88 51 154 4 105 -76 346 -285 430 -374 75 -79 267 -320 267 -335 0 -3 21 -35 47 -72 114 -166 248 -412 293 -539 12 -33 27 -70 34 -84 7 -14 21 -54 30 -90 43 -159 50 -175 76 -175 18 0 29 11 49 49 65 126 113 639 80 858 -42 282 -111 509 -201 657 -77 127 -217 293 -308 364 -36 28 -67 54 -70 57 -9 9 -153 112 -210 150 -76 51 -212 119 -360 180 -215 89 -265 106 -505 166 -200 50 -225 56 -270 64 -93 19 -111 20 -128 10z"/> <path d="M6195 4048 c-22 -5 -68 -16 -102 -23 -34 -8 -74 -15 -89 -15 -32 0 -74 -12 -332 -97 -210 -68 -245 -83 -422 -173 -170 -88 -258 -148 -430 -296 -100 -87 -119 -106 -187 -193 -48 -61 -50 -67 -28 -99 9 -12 38 -66 66 -119 50 -96 72 -157 102 -278 34 -136 41 -176 46 -293 5 -93 10 -125 21 -132 28 -18 41 -10 65 43 13 28 49 88 80 132 31 44 77 112 103 150 26 39 76 102 112 140 36 39 83 90 104 115 138 161 322 320 369 320 18 0 41 -17 77 -57 98 -107 93 -125 -80 -275 -218 -189 -418 -423 -551 -643 -24 -38 -66 -106 -94 -150 -28 -44 -65 -109 -82 -145 -38 -81 -120 -289 -129 -327 -3 -15 -16 -64 -29 -108 -13 -44 -25 -96 -27 -115 l-3 -35 75 3 c44 1 110 13 160 28 200 61 229 72 405 157 173 84 249 134 401 265 17 15 85 86 151 158 96 106 124 143 141 190 23 61 42 94 124 209 27 36 54 78 62 93 15 29 63 172 90 267 10 33 24 81 32 107 8 26 14 58 14 72 0 13 5 37 11 53 15 40 39 271 39 388 0 123 -26 457 -40 505 -6 19 -10 51 -10 70 0 19 -9 54 -20 78 l-19 42 -68 -1 c-37 -1 -86 -6 -108 -11z"/> <path d="M7034 5786 c-175 -45 -306 -206 -292 -360 15 -160 106 -262 287 -321 117 -38 249 1 341 102 59 64 82 107 100 181 44 187 -120 393 -322 407 -34 2 -86 -2 -114 -9z m152 -111 c73 -29 85 -39 106 -84 16 -37 21 -68 22 -158 1 -111 1 -112 -29 -143 -46 -49 -115 -80 -178 -80 l-53 0 -65 71 c-64 72 -88 124 -89 193 -1 146 153 254 286 201z"/> <path d="M7032 5614 c-20 -13 -22 -24 -22 -92 0 -107 16 -200 36 -223 13 -14 31 -19 69 -19 67 0 97 25 93 78 -3 33 -6 37 -33 38 -49 2 -53 3 -59 20 -10 25 12 44 50 44 37 0 54 21 54 65 0 34 -25 82 -49 95 -30 15 -113 12 -139 -6z"/> <path d="M8292 3173 c-58 -57 -81 -117 -63 -160 18 -43 71 -98 119 -123 56 -29 97 -21 154 29 l43 39 0 73 c0 88 -20 122 -95 163 -72 39 -101 35 -158 -21z"/> <path d="M394 3170 c-35 -14 -73 -73 -80 -121 -5 -37 -1 -49 20 -79 31 -41 101 -90 128 -90 51 0 123 66 133 124 9 46 -12 114 -45 148 -24 24 -36 28 -82 27 -29 0 -63 -4 -74 -9z"/> </g> </svg> 