<?xml version="1.0" encoding="utf-8" ?>
<svg xmlns="http://www.w3.org/2000/svg" xmlns:xlink="http://www.w3.org/1999/xlink" width="1024" height="1024">
	<path fill="#595256" d="M510.042 813.507C516.7 824.945 521.023 843.552 525.538 856.455C531.133 872.441 538.035 888.888 545.339 904.178C548.417 910.621 552.013 916.865 555.437 923.13C562.129 935.375 568.349 946.741 577.727 957.224C585.346 965.74 595.014 973.29 601.442 982.644C601.562 984.431 601.524 986.403 602.208 988.068C600.945 989.351 598.993 990.182 597.243 990.497C593.614 991.151 589.66 989.866 586.781 987.644C582.536 984.369 578.976 977.279 575.96 972.812Q571.196 965.624 566.701 958.263Q562.207 950.903 557.989 943.381Q553.771 935.859 549.836 928.186Q545.9 920.513 542.252 912.699Q538.603 904.885 535.248 896.941Q531.892 888.997 528.833 880.933Q525.775 872.87 523.018 864.699Q520.261 856.528 517.809 848.26C515.057 839.272 511.488 829.026 510.464 819.683C510.722 817.739 510.244 815.463 510.042 813.507Z"/>
	<path fill="#0E7D32" d="M245.112 742.595C245.24 742.644 245.37 742.69 245.498 742.741C250.412 744.698 254.908 748.223 259.636 750.666C270.782 756.425 281.968 761.437 293.614 766.093C316.261 775.148 339.406 781.693 363.014 787.667C407.876 799.02 451.025 806.88 497.435 808.608C501.082 811.654 504.53 814.883 507.988 818.137C496.434 820.492 484.751 820.764 472.999 820.991C433.257 821.759 392.523 818.037 354.359 806.518Q338.034 801.715 322.379 795.046C301.384 785.988 255.958 762.807 245.112 742.595Z"/>
	<path fill="#0E7D32" d="M131.839 314.406L131.178 312.391L131.743 312.279C135.388 314.938 138.362 318.716 141.646 321.825C145.4 325.379 149.511 328.673 153.576 331.866C177.194 350.418 207.514 365.5 235.845 375.219L235.625 369.622C250.311 374.679 264.887 379.929 279.109 386.2C296.563 393.894 313.763 402.892 331.922 408.827C332.017 408.939 332.113 409.049 332.205 409.162C336.306 414.185 338.787 420.64 342.623 425.928Q346.995 431.889 351.767 437.535Q356.538 443.182 361.687 448.487Q366.835 453.792 372.336 458.731Q377.837 463.669 383.664 468.218C375.132 465.702 367.168 460.804 359.215 456.906L325.395 440.692C320.515 438.34 314.476 434.61 309.252 433.533C308.549 432.81 308.098 432.366 307.138 431.998C293.707 426.839 277.699 416.445 263.965 413.217C260.047 401.717 256.066 388.945 247.884 379.691C247.276 379.003 246.906 378.359 245.977 378.298C253.793 388.305 258.044 399.081 261.827 411.057L260.585 411.265C254.78 408.894 249.374 405.724 243.653 403.183C228.226 396.331 212.459 389.074 198.186 379.999C171.895 363.282 150.626 338.906 131.839 314.406Z"/>
	<path fill="#0E7D32" d="M508.123 44.6142C508.798 42.5674 509.419 39.2808 510.893 37.7264C513.905 40.4526 515.799 48.1317 517.372 51.98C521.369 61.7574 526.53 71.5415 531.875 80.6486C543.12 99.8108 557.396 115.31 571.739 132.09C574.452 129.257 576.758 126.187 579.1 123.046C587.816 134.424 596.736 145.696 603.15 158.595C606.852 166.041 608.999 174.421 613.391 181.477C618.561 177.166 622.75 171.692 627.449 166.881C643.857 189.987 653.952 215.846 664.556 241.898C669.46 238.003 674.421 234.344 679.646 230.884C683.499 248.543 688.185 265.759 690.281 283.778C690.692 287.311 692.736 315.586 693.182 316.639C695.299 316.313 697.371 313.621 698.559 312.002C701.23 308.362 703.499 304.32 705.825 300.453C712.259 330.23 710.973 377.956 699.275 406.276C698.546 407.891 697.182 408.959 695.789 409.987C690.575 413.837 684.709 416.999 679.193 420.406Q667.571 427.507 656.819 435.868C644.007 445.896 632.485 458.421 620.804 469.778C635.285 430.586 643.005 392.921 638.684 351.074C638.246 346.838 638.221 342.469 637.511 338.282C640.618 326.039 644.995 314.57 647.152 302.001C648.153 296.17 652.356 261.826 650.575 259.31C649.439 266.569 649.641 274.438 648.87 281.816C647.064 299.103 642.757 315.227 636.783 331.507C634.441 327.314 633.709 321.059 632.445 316.368C629.545 305.611 626.502 294.052 621.631 284.005C618.678 277.916 614.778 272.125 611.259 266.34L596.479 241.764C594.203 237.99 590.449 233.361 589.308 229.146L589.118 229.41L586.813 228.024L587.046 227.128C580.483 218.472 574.738 208.842 568.992 199.623C551.996 172.356 532.19 139.559 524.081 108.586C522.004 100.655 520.828 92.6414 519.147 84.6353C517.4 76.314 515.192 68.0411 512.983 59.8322C511.655 54.897 510.479 49.1606 508.123 44.6142Z"/>
	<path fill="#B8C154" d="M587.046 227.128C588.372 219.111 589.755 211.105 590.129 202.974C590.702 190.553 589.607 177.587 588.218 165.235C587.966 162.994 587.154 160.82 586.914 158.652C586.726 156.959 586.961 155.233 586.803 153.522C588.019 157.382 588.039 161.405 588.654 165.377C592.031 187.164 592.631 207.271 589.308 229.146L589.118 229.41L586.813 228.024L587.046 227.128Z"/>
	<defs>
		<linearGradient id="gradient_0" gradientUnits="userSpaceOnUse" x1="529.15454" y1="601.46912" x2="99.156532" y2="530.18665">
			<stop offset="0" stop-color="#56A53D"/>
			<stop offset="1" stop-color="#92C146"/>
		</linearGradient>
	</defs>
	<path fill="url(#gradient_0)" d="M131.839 314.406C150.626 338.906 171.895 363.282 198.186 379.999C212.459 389.074 228.226 396.331 243.653 403.183C249.374 405.724 254.78 408.894 260.585 411.265L261.827 411.057C258.044 399.081 253.793 388.305 245.977 378.298C246.906 378.359 247.276 379.003 247.884 379.691C256.066 388.945 260.047 401.717 263.965 413.217C277.699 416.445 293.707 426.839 307.138 431.998C308.098 432.366 308.549 432.81 309.252 433.533L308.895 434.088L309.077 434.739C311.129 441.929 314.584 448.941 317.422 455.855Q321.377 465.649 324.343 475.786C339.078 524.577 343.793 576.298 341.927 627.082Q356.716 645.299 372.319 662.824Q387.922 680.349 404.305 697.146Q420.689 713.943 437.821 729.977Q454.952 746.011 472.795 761.249C482.392 769.453 493.732 780.299 504.227 787.087C505.959 795.949 507.599 804.806 510.042 813.507C510.244 815.463 510.722 817.739 510.464 819.683C509.779 818.787 509.007 818.557 507.988 818.137C504.53 814.883 501.082 811.654 497.435 808.608C451.025 806.88 407.876 799.02 363.014 787.667C339.406 781.693 316.261 775.148 293.614 766.093C281.968 761.437 270.782 756.425 259.636 750.666C254.908 748.223 250.412 744.698 245.498 742.741C245.37 742.69 245.24 742.644 245.112 742.595C244.492 742.171 244.18 741.553 243.759 740.941L243.995 740.168C249.682 739.087 256.074 739.579 261.902 739.031C253.821 733.478 245.286 728.531 237.139 723.05C219.898 711.453 202.102 697.475 188.14 682.038C184.813 678.359 179.563 671.767 180.285 666.542C180.462 665.267 180.917 664.284 182.054 663.597C185.596 661.457 192.781 663.817 196.46 664.924C173.053 640.88 149.921 612.216 140.777 579.311C145.611 580.165 150.545 580.524 155.403 581.327C140.696 555.381 132.64 528.59 126.634 499.481C132.778 500.548 138.829 501.485 145.078 501.518C133.626 482.24 131.569 451.428 134.808 429.475C138.914 432.528 142.703 433.887 147.576 435.326C148.047 395.881 141.185 352.658 131.839 314.406Z"/>
	<path fill="#E6C166" d="M278.707 558.599C270.317 546.161 261.523 533.996 253.193 521.526Q230.355 487.497 209.019 452.506C204.277 444.892 199.27 437.408 194.715 429.682C189.532 420.891 185.038 411.658 180.105 402.722C175.603 394.569 170.219 387.019 166.046 378.664C177 393.387 186.103 409.685 196.09 425.072C218.567 459.701 241.241 494.658 265.819 527.814C270.369 499.746 271.674 470.756 267.77 442.531C266.308 431.961 263.916 421.516 261.827 411.057C258.044 399.081 253.793 388.305 245.977 378.298C246.906 378.359 247.276 379.003 247.884 379.691C256.066 388.945 260.047 401.717 263.965 413.217C274.18 455.995 276.387 490.977 270.861 534.682C274.108 542.274 280.783 549.413 285.723 556.023C293.23 566.066 300.539 576.298 308.404 586.066C318.218 598.256 328.776 610.049 337.903 622.768C337.947 600.731 338.103 578.799 336.375 556.804C334.489 532.78 330.167 508.258 324.747 484.788C322.522 475.15 320.534 463.806 316.132 454.905C314.92 452.452 307.855 435.414 308.346 433.873L308.895 434.088L309.077 434.739C311.129 441.929 314.584 448.941 317.422 455.855Q321.377 465.649 324.343 475.786C339.078 524.577 343.793 576.298 341.927 627.082Q356.716 645.299 372.319 662.824Q387.922 680.349 404.305 697.146Q420.689 713.943 437.821 729.977Q454.952 746.011 472.795 761.249C482.392 769.453 493.732 780.299 504.227 787.087C505.959 795.949 507.599 804.806 510.042 813.507C510.244 815.463 510.722 817.739 510.464 819.683C509.779 818.787 509.007 818.557 507.988 818.137C504.53 814.883 501.082 811.654 497.435 808.608C492.25 802.544 485.92 796.977 480.271 791.325C463.533 774.579 446.154 758.563 429.047 742.204C416.507 730.212 405.412 716.972 393.237 704.671C377.964 703.284 362.863 699.903 347.896 696.649Q342.434 695.479 337.003 694.17Q331.572 692.862 326.176 691.417Q320.779 689.973 315.421 688.392Q310.063 686.811 304.747 685.096Q299.431 683.38 294.159 681.531Q288.888 679.681 283.665 677.7Q278.442 675.718 273.271 673.604Q268.1 671.491 262.984 669.248Q257.868 667.005 252.81 664.633Q247.752 662.261 242.756 659.763Q237.759 657.264 232.828 654.64Q227.896 652.016 223.033 649.268Q218.169 646.52 213.376 643.65Q208.583 640.78 203.865 637.79Q199.146 634.8 194.504 631.692Q189.863 628.584 185.301 625.359C178.192 620.34 165.229 612.102 160.723 605.093L160.883 604.614C160.955 604.742 161.005 604.885 161.1 604.996C167.718 612.683 181.769 621.737 190.572 627.436C250.419 666.181 318.554 684.723 387.726 698.67C378.444 689.155 370.154 678.091 362.018 667.585L333.036 630.019L302.337 590.228C295.612 581.466 288.62 572.669 282.539 563.447Q278.011 563.576 273.484 563.423Q268.956 563.27 264.447 562.837Q259.938 562.403 255.464 561.691Q250.991 560.979 246.57 559.99C217.105 553.289 189.223 538.082 168.68 515.855C165.43 512.338 161.737 508.714 159.186 504.652L159.298 504.209C162.578 507.729 165.683 511.406 169.082 514.814C196.522 542.331 239.985 558.549 278.707 558.599Z"/>
	<path fill="#59A940" d="M263.965 413.217C277.699 416.445 293.707 426.839 307.138 431.998C308.098 432.366 308.549 432.81 309.252 433.533L308.895 434.088L308.346 433.873C307.855 435.414 314.92 452.452 316.132 454.905C320.534 463.806 322.522 475.15 324.747 484.788C330.167 508.258 334.489 532.78 336.375 556.804C338.103 578.799 337.947 600.731 337.903 622.768C328.776 610.049 318.218 598.256 308.404 586.066C300.539 576.298 293.23 566.066 285.723 556.023C280.783 549.413 274.108 542.274 270.861 534.682C276.387 490.977 274.18 455.995 263.965 413.217Z"/>
	<path fill="#59A940" d="M508.123 44.6142C510.479 49.1606 511.655 54.897 512.983 59.8322C515.192 68.0411 517.4 76.314 519.147 84.6353C520.828 92.6414 522.004 100.655 524.081 108.586C532.19 139.559 551.996 172.356 568.992 199.623C574.738 208.842 580.483 218.472 587.046 227.128L586.813 228.024L589.118 229.41L589.308 229.146C590.449 233.361 594.203 237.99 596.479 241.764L611.259 266.34C614.778 272.125 618.678 277.916 621.631 284.005C626.502 294.052 629.545 305.611 632.445 316.368C633.709 321.059 634.441 327.314 636.783 331.507C634.49 338.701 630.958 345.63 628.188 352.669Q626.047 358.229 623.761 363.731Q621.475 369.232 619.044 374.672Q616.613 380.111 614.04 385.484Q611.467 390.858 608.752 396.161Q606.038 401.465 603.185 406.695Q600.332 411.926 597.342 417.079Q594.352 422.232 591.227 427.304Q588.103 432.377 584.845 437.365Q581.588 442.354 578.2 447.254Q574.812 452.155 571.296 456.965Q567.78 461.775 564.138 466.49Q560.496 471.205 556.732 475.823Q552.967 480.44 549.082 484.957Q545.197 489.474 541.194 493.887Q537.191 498.299 533.073 502.605Q528.955 506.91 524.725 511.106C515.891 519.871 506.682 529.737 495.966 536.202L496.033 543.558C496.307 565.197 497.336 586.935 498.514 608.543C499.092 619.128 499.013 630.501 500.973 640.89L501.819 647.12C504.547 677.158 507.545 707.009 511.379 736.936C513.251 751.552 514.986 766.224 517.681 780.716C518.504 786.944 519.446 793.96 521.323 799.95L522.74 806.595C523.364 809.369 523.717 812.477 524.624 815.141C534.138 852.645 545.91 886.834 563.739 921.28C567.555 928.651 571.365 936.822 576.151 943.614C582.324 952.375 590.223 959.855 597.857 967.311C602.255 971.607 608.068 978.831 604.536 985.307C603.962 986.36 603.052 987.229 602.208 988.068C601.524 986.403 601.562 984.431 601.442 982.644C595.014 973.29 585.346 965.74 577.727 957.224C568.349 946.741 562.129 935.375 555.437 923.13C552.013 916.865 548.417 910.621 545.339 904.178C538.035 888.888 531.133 872.441 525.538 856.455C521.023 843.552 516.7 824.945 510.042 813.507C507.599 804.806 505.959 795.949 504.227 787.087C493.732 780.299 482.392 769.453 472.795 761.249Q454.952 746.011 437.821 729.977Q420.689 713.943 404.306 697.146Q387.922 680.349 372.319 662.824Q356.716 645.299 341.927 627.082C343.793 576.298 339.078 524.577 324.343 475.786Q321.377 465.649 317.422 455.855C314.584 448.941 311.129 441.929 309.077 434.739L308.895 434.088L309.252 433.533C314.476 434.61 320.515 438.34 325.395 440.692L359.215 456.906C367.168 460.804 375.132 465.702 383.664 468.218Q377.837 463.669 372.336 458.731Q366.835 453.792 361.687 448.487Q356.538 443.182 351.767 437.535Q346.995 431.889 342.623 425.928C338.787 420.64 336.306 414.185 332.205 409.162C332.113 409.049 332.017 408.939 331.922 408.827C331.866 404.177 325.574 393.331 323.81 388.156C314.325 360.328 312.877 330.692 317.639 301.81C322.421 306.685 326.522 312.811 330.786 318.182C331.469 288.733 336.829 259.834 350.083 233.328C354.09 236.739 357.986 240.211 362.502 242.944C370.566 216.549 384.377 190.239 400.411 167.84C403.918 173.358 407.125 178.489 411.858 183.044C414.055 177.114 415.25 170.861 417.596 164.955C423.467 150.175 435.345 135.001 446.316 123.464Q449.813 127.963 453.466 132.335C461.135 123.458 469.307 115.056 476.587 105.833C491.13 87.4087 500.552 66.6707 508.123 44.6142Z"/>
	<path fill="#E6C166" d="M486.416 559.215Q486.624 557.516 486.877 555.823L487.206 559.166L487.536 558.904L487.551 555.889L487.761 555.987C487.79 559.315 487.573 562.878 488.065 566.162C488.159 579.792 487.854 593.423 488.007 607.054C488.1 615.36 488.802 623.855 488.556 632.139L488.229 633.334C486.543 626.799 486.97 618.799 486.787 612.073Q486.169 585.647 486.416 559.215Z"/>
	<path fill="#E6C166" d="M489.193 644.159L488.732 644.781C481.992 639.628 474.97 634.78 468.339 629.495C459.173 622.19 450.334 614.101 441.852 606.009C432.964 597.529 425.013 588.355 416.973 579.083Q400.675 560.24 385.925 540.163Q371.176 520.085 358.067 498.9C351.227 487.81 344.995 476.343 338.583 465.013C343.513 469.49 349.451 482.481 353.089 488.664Q358.465 497.867 364.407 506.716C392.02 548.236 444.985 611.708 487.774 637.307C488.465 636.062 488.222 634.743 488.229 633.334L488.556 632.139C489.168 636.123 488.969 640.148 489.193 644.159Z"/>
	<defs>
		<linearGradient id="gradient_1" gradientUnits="userSpaceOnUse" x1="546.59509" y1="377.64368" x2="350.14893" y2="313.0899">
			<stop offset="0" stop-color="#E8B85B"/>
			<stop offset="1" stop-color="#E8CF68"/>
		</linearGradient>
	</defs>
	<path fill="url(#gradient_1)" d="M500.322 276.458C500.49 269.903 501.451 263.233 502.127 256.706L505.915 221.027L511.498 170.396C513.229 153.859 514.68 137.318 516.836 120.828L517.329 121.356L517.339 120.242L516.973 120.024L517.232 119.177C517.608 124.858 516.42 131.043 516.025 136.753L512.234 185.485L497.67 357.853Q493.128 424.729 490.196 491.695Q489.342 516.411 488.818 541.137C488.636 549.23 489.231 558.212 488.065 566.162C487.573 562.878 487.79 559.315 487.761 555.987L487.551 555.889L487.536 558.904L487.206 559.166L486.877 555.823Q486.624 557.516 486.416 559.215C485.005 550.505 486.091 539.399 486.192 530.457C458.095 509.757 434.585 484.5 414.729 455.851C380.884 407.017 354.223 354 347.776 294.224C346.646 283.75 344.893 272.383 346.782 261.934C346.845 269.06 346.962 276.21 347.682 283.304C353.616 341.819 378.833 395.159 411.617 443.224C424.213 461.691 437.572 479.308 453.097 495.436C463.346 506.083 474.631 515.612 486.056 524.958Q486.186 461.286 489.933 397.724C483.491 390.861 476.507 384.504 470.052 377.644C441.549 347.355 419.81 306.591 409.694 266.311C406.441 253.355 404.536 240.234 403.088 226.973C401.865 215.765 400.803 204.388 401.145 193.106C402.03 197.367 402.157 201.842 402.536 206.175C407.016 257.383 419.909 299.074 448.541 342.011C460.567 360.044 473.742 375.987 490.404 389.974C490.371 376.294 492.756 362.233 493.853 348.583C495.533 327.665 495.805 304.806 499.783 284.322C494.33 275.254 488.478 266.256 483.935 256.687C470.205 227.768 456.519 179.791 463.17 148.024L463.127 148.465L463.066 149.201C460.107 181.453 471.026 215.936 483.41 245.329C487.838 255.84 492.715 267 499.887 275.926L500.322 276.458Z"/>
	<path fill="#47312C" d="M497.67 357.853L498.207 357.52C499.024 360.646 497.522 385.603 497.602 391.259L497.481 399.336C496.285 421.848 496.137 444.55 495.675 467.1C495.206 490.003 494.276 513.342 495.966 536.202L496.033 543.558C496.307 565.197 497.336 586.935 498.514 608.543C499.092 619.128 499.013 630.501 500.973 640.89L501.819 647.12C504.547 677.158 507.545 707.009 511.379 736.936C513.251 751.552 514.986 766.224 517.681 780.716C518.504 786.944 519.446 793.96 521.323 799.95L522.74 806.595C523.364 809.369 523.717 812.477 524.624 815.141C534.138 852.645 545.91 886.834 563.739 921.28C567.555 928.651 571.365 936.822 576.151 943.614C582.324 952.375 590.223 959.855 597.857 967.311C602.255 971.607 608.068 978.831 604.536 985.307C603.962 986.36 603.052 987.229 602.208 988.068C601.524 986.403 601.562 984.431 601.442 982.644C595.014 973.29 585.346 965.74 577.727 957.224C568.349 946.741 562.129 935.375 555.437 923.13C552.013 916.865 548.417 910.621 545.339 904.178C538.035 888.888 531.133 872.441 525.538 856.455C521.023 843.552 516.7 824.945 510.042 813.507C507.599 804.806 505.959 795.949 504.227 787.087Q495.899 739.521 492.209 691.372C490.914 675.794 491.479 659.582 489.193 644.159C488.969 640.148 489.168 636.123 488.556 632.139C488.802 623.855 488.1 615.36 488.007 607.054C487.854 593.423 488.159 579.792 488.065 566.162C489.231 558.212 488.636 549.23 488.818 541.137Q489.342 516.411 490.196 491.695Q493.128 424.729 497.67 357.853Z"/>
	<path fill="#59A940" d="M586.813 228.024L589.118 229.41L589.308 229.146C590.449 233.361 594.203 237.99 596.479 241.764L611.259 266.34C614.778 272.125 618.678 277.916 621.631 284.005C626.502 294.052 629.545 305.611 632.445 316.368C633.709 321.059 634.441 327.314 636.783 331.507C634.49 338.701 630.958 345.63 628.188 352.669Q626.047 358.229 623.761 363.731Q621.475 369.232 619.044 374.672Q616.613 380.111 614.04 385.484Q611.467 390.858 608.752 396.161Q606.038 401.465 603.185 406.695Q600.332 411.926 597.342 417.079Q594.352 422.232 591.227 427.304Q588.103 432.377 584.845 437.365Q581.588 442.354 578.2 447.254Q574.812 452.155 571.296 456.965Q567.78 461.775 564.138 466.49Q560.496 471.205 556.732 475.823Q552.967 480.44 549.082 484.957Q545.197 489.474 541.194 493.887Q537.191 498.299 533.073 502.605Q528.955 506.91 524.725 511.106C515.891 519.871 506.682 529.737 495.966 536.202C494.276 513.342 495.206 490.003 495.675 467.1C496.137 444.55 496.285 421.848 497.481 399.336L497.602 391.259C502.415 387.533 506.798 381.458 510.71 376.762C542.588 338.496 573.73 275.779 586.813 228.024Z"/>
	<path fill="#E6C166" d="M586.813 228.024L589.118 229.41C578.443 279.82 546.302 340.048 514.259 380.308C509.262 386.588 503.86 394.399 497.481 399.336L497.602 391.259C502.415 387.533 506.798 381.458 510.71 376.762C542.588 338.496 573.73 275.779 586.813 228.024Z"/>
	<path fill="#219A3E" d="M636.783 331.507C642.757 315.227 647.064 299.103 648.87 281.816C649.641 274.438 649.439 266.569 650.575 259.31C652.356 261.826 648.153 296.17 647.152 302.001C644.995 314.57 640.618 326.039 637.511 338.282C638.221 342.469 638.246 346.838 638.684 351.074C643.005 392.921 635.285 430.586 620.804 469.778C632.485 458.421 644.007 445.896 656.819 435.868Q667.571 427.507 679.193 420.406C684.709 416.999 690.575 413.837 695.789 409.987C697.182 408.959 698.546 407.891 699.275 406.276C702.311 405.684 716.574 397.67 720.505 395.822C728.372 392.124 735.909 392.067 743.125 389.143C747.144 387.514 750.845 384.272 754.473 381.879C762.746 376.422 775.724 370.625 785.523 369.289C787.146 369.068 788.737 369.137 790.057 370.14C790.662 372.29 790.121 374.741 789.884 376.937C823.294 368.653 848.41 352.233 874.735 330.784C882.302 324.619 889.928 318.512 897.212 312.013Q895.744 315.745 894.2 319.446C882.955 357.627 875.928 397.651 875.407 437.533C880.784 435.281 885.657 434.033 891.39 433.154C892.939 457.805 888.885 479.301 879.317 502.103C885.506 501.313 891.717 500.371 897.943 499.936C892.093 528.155 886.094 558.177 867.086 580.942C872.586 580.034 878.002 579.794 883.57 579.869C872.6 608.717 851.168 644.275 826.097 663.066C829.998 663.078 840.828 662.141 843.528 664.958C844.098 665.554 843.998 666.466 843.861 667.231C840.636 685.235 801.132 715.03 785.465 724.654C778.374 729.009 771.085 732.176 763.497 735.498C768.911 735.601 777.586 735.188 782.36 738.006C782.782 739.142 782.897 739.708 782.442 740.874C780.874 744.895 775.232 749.085 772.12 751.943C748.184 773.925 719.243 789.403 688.857 800.541C644.71 816.723 570.341 828.516 524.624 815.141C523.717 812.477 523.364 809.369 522.74 806.595L521.323 799.95C519.446 793.96 518.504 786.944 517.681 780.716C514.986 766.224 513.251 751.552 511.379 736.936C507.545 707.009 504.547 677.158 501.819 647.12L500.973 640.89C499.013 630.501 499.092 619.128 498.514 608.543C497.336 586.935 496.307 565.197 496.033 543.558L495.966 536.202C506.682 529.737 515.891 519.871 524.725 511.106Q528.955 506.91 533.073 502.605Q537.191 498.299 541.194 493.887Q545.197 489.474 549.082 484.957Q552.967 480.44 556.732 475.823Q560.496 471.205 564.138 466.49Q567.78 461.775 571.296 456.965Q574.812 452.155 578.2 447.255Q581.588 442.354 584.845 437.365Q588.103 432.377 591.227 427.305Q594.352 422.232 597.342 417.079Q600.332 411.926 603.185 406.695Q606.038 401.465 608.752 396.161Q611.467 390.858 614.04 385.484Q616.613 380.111 619.044 374.672Q621.475 369.232 623.761 363.731Q626.047 358.229 628.188 352.669C630.958 345.63 634.49 338.701 636.783 331.507Z"/>
	<path fill="#B8C154" d="M669.373 545.923C675.607 510.469 682.581 474.493 698.118 441.711C699.645 438.488 700.284 434.995 702.29 432.002C702.445 432.964 688.98 467.904 687.284 473.439C679.553 498.656 675.383 524.202 671.872 550.281C670.024 542.787 675.412 528.856 675.105 520.441C673.108 523.202 670.671 543.875 669.768 548.611L669.373 545.923Z"/>
	<path fill="#B8C154" d="M500.973 640.89C512.366 632.504 522.456 622.535 532.401 612.516Q539.216 605.654 545.799 598.57Q552.383 591.485 558.727 584.187Q565.072 576.888 571.17 569.382Q577.269 561.876 583.115 554.173Q588.962 546.469 594.549 538.575Q600.136 530.681 605.458 522.606Q610.78 514.531 615.831 506.284Q620.882 498.037 625.657 489.627C636.693 469.869 641.37 461.541 641.408 461.547C635.852 475.653 627.427 489.634 619.761 502.72C613.39 513.596 607.079 524.554 600.133 535.076Q591.876 547.4 583.004 559.289Q574.133 571.179 564.67 582.603Q555.208 594.028 545.178 604.958Q535.149 615.888 524.578 626.296C517.818 632.997 510.634 641.564 502.638 646.599L501.819 647.12L500.973 640.89Z"/>
	<path fill="#E6C166" d="M636.783 331.507C642.757 315.227 647.064 299.103 648.87 281.816C649.641 274.438 649.439 266.569 650.575 259.31C652.356 261.826 648.153 296.17 647.152 302.001C644.995 314.57 640.618 326.039 637.511 338.282C632.858 350.976 628.22 363.747 622.736 376.108Q620.419 381.337 617.973 386.507Q615.528 391.677 612.957 396.785Q610.385 401.894 607.688 406.938Q604.992 411.981 602.172 416.957Q599.352 421.933 596.411 426.838Q593.47 431.742 590.409 436.574Q587.348 441.405 584.169 446.159Q580.99 450.913 577.695 455.588Q574.4 460.263 570.991 464.855Q567.582 469.447 564.061 473.954Q560.54 478.461 556.909 482.88Q553.278 487.299 549.54 491.627Q545.802 495.956 541.958 500.191Q538.114 504.426 534.168 508.565Q530.221 512.704 526.174 516.745Q522.126 520.786 517.981 524.726C510.98 531.308 503.383 537.367 496.033 543.558L495.966 536.202C506.682 529.737 515.891 519.871 524.725 511.106Q528.955 506.91 533.073 502.605Q537.191 498.299 541.194 493.887Q545.197 489.474 549.082 484.957Q552.967 480.44 556.732 475.823Q560.496 471.205 564.138 466.49Q567.78 461.775 571.296 456.965Q574.812 452.155 578.2 447.255Q581.588 442.354 584.845 437.365Q588.103 432.377 591.227 427.305Q594.352 422.232 597.342 417.079Q600.332 411.926 603.185 406.695Q606.038 401.465 608.752 396.161Q611.467 390.858 614.04 385.484Q616.613 380.111 619.044 374.672Q621.475 369.232 623.761 363.731Q626.047 358.229 628.188 352.669C630.958 345.63 634.49 338.701 636.783 331.507Z"/>
	<path fill="#59A940" d="M746.248 531.653C745.735 525.085 744.396 518.393 743.522 511.853C741.299 495.228 739.636 478.253 740.627 461.468C742.15 435.662 751.225 407.521 766.977 386.907L767.476 387.215C766.305 391.448 762.093 396.291 759.871 400.181C756.987 405.229 754.585 410.652 752.539 416.089C738.539 453.297 743.369 488.02 750.638 525.825C764.192 510.302 776.145 492.912 788.069 476.116L822.191 428.391C825.953 423.066 838.42 407.125 840.561 401.743C840.61 401.62 840.643 401.49 840.683 401.364L841.038 401.893L841.376 401.211L841.573 401.198C840.796 404.452 835.022 411.755 832.977 415.039Q796.956 472.642 756.99 527.582C748.989 538.603 741.247 549.734 732.96 560.552Q736.411 559.97 739.845 559.294Q743.279 558.618 746.694 557.849Q750.108 557.08 753.5 556.219Q756.893 555.358 760.26 554.405Q763.628 553.452 766.968 552.407Q770.309 551.363 773.62 550.229Q776.931 549.094 780.21 547.87Q783.488 546.646 786.733 545.334Q789.977 544.021 793.185 542.621Q796.392 541.221 799.561 539.734Q802.729 538.247 805.856 536.675Q808.983 535.103 812.066 533.446Q815.149 531.79 818.186 530.05Q821.223 528.31 824.211 526.489Q827.2 524.667 830.138 522.765Q833.076 520.863 835.961 518.882C855.447 505.542 868.31 489.025 880.505 469.143C876.59 482.447 858.636 502.152 848.084 511.166C844.093 514.576 839.127 517.316 835.436 520.963C828.658 527.418 819.558 532.741 811.355 537.198C784.897 551.572 757.26 560.924 728.119 568.226C709.155 589.602 692.696 613.009 674.298 634.837C657.867 654.332 640.802 673.37 623.903 692.46C617.975 699.157 611.611 705.586 605.906 712.457C623.274 709.716 640.557 703.628 657.252 698.23Q707.339 682.356 755.767 661.975C764.38 658.355 777.021 653.729 784.695 648.806C810.908 637.411 845.642 618.398 866.789 599.401C867.844 598.454 873.177 593.172 874.39 593.634L874.35 594.038L873.227 594.603L873.671 594.367C851.2 615.649 823.796 631.361 796.515 645.713C790.47 648.894 784.055 651.273 778.095 654.635Q746.809 669.257 714.819 682.268Q682.83 695.28 650.22 706.647C641.212 709.808 631.885 712.422 622.652 714.836C617.603 716.156 602.423 718.752 598.846 720.905C591.065 725.591 567.607 754.03 559.497 762.43C547.114 775.255 533.895 787.303 521.323 799.95C519.446 793.96 518.504 786.944 517.681 780.716C536.819 765.069 554.42 746.867 571.83 729.34C591.257 709.781 610.613 690.324 629.501 670.224C641.385 657.579 652.87 644.503 664.6 631.706C664.485 603.032 665.09 574.326 669.373 545.923L669.768 548.611C670.671 543.875 673.108 523.202 675.105 520.441C675.412 528.856 670.024 542.787 671.872 550.281C672.685 556.204 670.327 567.068 669.998 573.606Q668.584 599.877 669.188 626.179C681.441 614.103 694.289 597.153 705.229 583.729C719.135 566.667 733.821 549.844 746.248 531.653Z"/>
	<path fill="#219A3E" d="M835.436 520.963C835.106 558.111 818.111 596.106 799.072 627.221C795.743 632.662 785.984 644.067 784.695 648.806C777.021 653.729 764.38 658.355 755.767 661.975Q707.339 682.356 657.252 698.23C640.557 703.628 623.274 709.716 605.906 712.457C611.611 705.586 617.975 699.157 623.903 692.46C640.802 673.37 657.867 654.332 674.298 634.837C692.696 613.009 709.155 589.602 728.119 568.226C757.26 560.924 784.897 551.572 811.355 537.198C819.558 532.741 828.658 527.418 835.436 520.963Z"/>
	<path fill="#0E7D32" d="M835.961 518.882Q835.993 510.626 836.381 502.379Q836.769 494.133 837.512 485.91Q838.255 477.688 839.352 469.505Q840.449 461.322 841.897 453.194Q843.345 445.066 845.142 437.008Q846.939 428.95 849.082 420.977Q851.225 413.004 853.709 405.131Q856.194 397.258 859.015 389.499C861.631 382.124 864.161 374.612 867.314 367.452C870.207 360.884 889.298 321.349 894.2 319.446C882.955 357.627 875.928 397.651 875.407 437.533C880.784 435.281 885.657 434.033 891.39 433.154C892.939 457.805 888.885 479.301 879.317 502.103C885.506 501.313 891.717 500.371 897.943 499.936C892.093 528.155 886.094 558.177 867.086 580.942C872.586 580.034 878.002 579.794 883.57 579.869C872.6 608.717 851.168 644.275 826.097 663.066C829.998 663.078 840.828 662.141 843.528 664.958C844.098 665.554 843.998 666.466 843.861 667.231C840.636 685.235 801.132 715.03 785.465 724.654C778.374 729.009 771.085 732.176 763.497 735.498C768.911 735.601 777.586 735.188 782.36 738.006C782.782 739.142 782.897 739.708 782.442 740.874C780.874 744.895 775.232 749.085 772.12 751.943C748.184 773.925 719.243 789.403 688.857 800.541C644.71 816.723 570.341 828.516 524.624 815.141C523.717 812.477 523.364 809.369 522.74 806.595L521.323 799.95C533.895 787.303 547.114 775.255 559.497 762.43C567.607 754.03 591.065 725.591 598.846 720.905C602.423 718.752 617.603 716.156 622.652 714.836C631.885 712.422 641.212 709.808 650.22 706.647Q682.83 695.279 714.819 682.268Q746.809 669.257 778.095 654.635C784.055 651.273 790.47 648.894 796.515 645.713C823.796 631.361 851.2 615.649 873.671 594.367L873.227 594.603L874.35 594.038L874.39 593.634C873.177 593.172 867.844 598.454 866.789 599.401C845.642 618.398 810.908 637.411 784.695 648.806C785.984 644.067 795.743 632.662 799.072 627.221C818.111 596.106 835.106 558.111 835.436 520.963C839.127 517.316 844.093 514.576 848.084 511.166C858.636 502.152 876.59 482.447 880.505 469.143C868.31 489.025 855.447 505.542 835.961 518.882Z"/>
	<path fill="#219A3E" d="M778.095 654.635C775.095 663.144 765.474 671.722 759.25 678.151C730.636 707.71 694.253 735.145 658.391 755.345C644.661 763.079 630.334 769.774 616.128 776.582C595.189 786.618 565.389 798.359 542.756 803.445C536.077 804.945 529.429 805.442 522.74 806.595L521.323 799.95C533.895 787.303 547.114 775.255 559.497 762.43C567.607 754.03 591.065 725.591 598.846 720.905C602.423 718.752 617.603 716.156 622.652 714.836C631.885 712.422 641.212 709.808 650.22 706.647Q682.83 695.279 714.819 682.268Q746.809 669.257 778.095 654.635Z"/>
</svg>
